# xmcd CD database file
#
# Track frame offsets:
#	150
#	10782
#	19489
#	30229
#	41253
#	51273
#	62932
#	73460
#	85941
#	100384
#	110948
#	120506
#	133288
#	143576
#	154109
#	166140
#	175805
#	189451
#	205865
#	221552
#	231976
#	263961
#	278518
#	292132
#	305875
#	324904
#	342368
#
# Disc length: 4779 seconds
#
# Revision: 2
# Processed by: cddbd v1.4b41PL1 Copyright (c) Steve Scherf et al.
# Submitted via: Feurio! 1.60 - http://www.feurio.com
#
DISCID=9212a91b,9b12a91b
DTITLE=The Beatles - The Beatles 1
DYEAR=1900
DGENRE=
TTITLE0=Love me do
TTITLE1=From me to you
TTITLE2=She love you
TTITLE3=I want to hold your Hand
TTITLE4=Can't buy me love
TTITLE5=A hard day's night
TTITLE6=I feel fine
TTITLE7=Eight days a week
TTITLE8=Ticket to ride
TTITLE9=Help !!
TTITLE10=Yesterday
TTITLE11=Day tripper
TTITLE12=We can't work it out
TTITLE13=Paperback writer
TTITLE14=Yellow submarine
TTITLE15=Elenor Rigby
TTITLE16=Penny Lane
TTITLE17=All you need is love
TTITLE18=Hello, good bye
TTITLE19=Lady Madonna
TTITLE20=Hey Jude
TTITLE21=get back
TTITLE22=The Ballad of John and Yoko
TTITLE23=Something
TTITLE24=Come together
TTITLE25=Let it be
TTITLE26=The long and winding road
EXTD=
EXTT0=
EXTT1=
EXTT2=
EXTT3=
EXTT4=
EXTT5=
EXTT6=
EXTT7=
EXTT8=
EXTT9=
EXTT10=
EXTT11=
EXTT12=
EXTT13=
EXTT14=
EXTT15=
EXTT16=
EXTT17=
EXTT18=
EXTT19=
EXTT20=
EXTT21=
EXTT22=
EXTT23=
EXTT24=
EXTT25=
EXTT26=
PLAYORDER=
